<?xml version="1.0" encoding="UTF-8" standalone="no"?>
<!-- Created with Inkscape (http://www.inkscape.org/) -->

<svg
   xmlns:dc="http://purl.org/dc/elements/1.1/"
   xmlns:cc="http://creativecommons.org/ns#"
   xmlns:rdf="http://www.w3.org/1999/02/22-rdf-syntax-ns#"
   xmlns:svg="http://www.w3.org/2000/svg"
   xmlns="http://www.w3.org/2000/svg"
   xmlns:sodipodi="http://sodipodi.sourceforge.net/DTD/sodipodi-0.dtd"
   xmlns:inkscape="http://www.inkscape.org/namespaces/inkscape"
   id="svg2"
   version="1.1"
   inkscape:version="0.91 r13725"
   width="480.60001"
   height="99"
   viewBox="0 0 480.60001 99"
   sodipodi:docname="header_logo.svg"
   inkscape:export-filename="/home/matts/Downloads/header_logo.png"
   inkscape:export-xdpi="90"
   inkscape:export-ydpi="90">
  <metadata
     id="metadata8">
    <rdf:RDF>
      <cc:Work
         rdf:about="">
        <dc:format>image/svg+xml</dc:format>
        <dc:type
           rdf:resource="http://purl.org/dc/dcmitype/StillImage" />
        <dc:title />
      </cc:Work>
    </rdf:RDF>
  </metadata>
  <defs
     id="defs6" />
  <sodipodi:namedview
     pagecolor="#ffffff"
     bordercolor="#666666"
     borderopacity="1"
     objecttolerance="10"
     gridtolerance="10"
     guidetolerance="10"
     inkscape:pageopacity="0"
     inkscape:pageshadow="2"
     inkscape:window-width="1484"
     inkscape:window-height="903"
     id="namedview4"
     showgrid="false"
     inkscape:zoom="2.2128616"
     inkscape:cx="94.273147"
     inkscape:cy="44.306427"
     inkscape:window-x="0"
     inkscape:window-y="31"
     inkscape:window-maximized="0"
     inkscape:current-layer="svg2" />
  <ellipse
     style="opacity:1;fill:#ffffff;fill-opacity:1;stroke:#55cbef;stroke-width:1.38264382;stroke-miterlimit:4;stroke-dasharray:none;stroke-opacity:1"
     id="path4241"
     cx="120.61156"
     cy="62.260979"
     rx="29.359247"
     ry="30.118315" />
  <g
     id="g4266"
     transform="translate(24.463136,100.14596)"
     style="fill:#ffffff">
    <path
       inkscape:connector-curvature="0"
       id="path4140"
       d="m 181.46895,-71.236642 0,-20.340454 12.14132,0 12.14131,0 0,3.581967 0,3.581967 -7.8244,0 -7.8244,0 0,4.477458 0,4.477458 7.28479,0 7.28478,0 0,3.449861 0,3.44986 -7.21733,0.06814 -7.21734,0.06815 0,5.245023 0,5.245023 7.75695,0.06789 7.75695,0.06788 0,3.450117 0,3.450115 -12.14131,0 -12.14132,0 0,-20.340454 z"
       style="opacity:1;fill:#ffffff;fill-opacity:1;stroke:none;stroke-width:2.88599992;stroke-miterlimit:4;stroke-dasharray:none;stroke-opacity:1" />
    <path
       inkscape:connector-curvature="0"
       id="path4142"
       d="m 215.19483,-71.236642 0,-20.340454 6.94754,0.0021 c 7.59729,0.0023 10.80828,0.249793 13.6927,1.05541 4.29242,1.198872 7.06523,3.724978 8.1211,7.398551 0.63522,2.210029 0.63839,6.452702 0.006,8.649693 -1.76383,6.13228 -7.77508,9.235632 -17.90808,9.245191 l -2.22591,0.0021 0,7.163934 0,7.163933 -4.31691,0 -4.31691,0 0,-20.340454 z m 15.79448,-1.546035 c 3.20095,-0.785645 4.55762,-2.539412 4.53547,-5.862986 -0.0149,-2.235058 -0.34107,-3.117219 -1.59077,-4.302291 -1.12383,-1.065715 -2.97289,-1.465208 -6.78174,-1.465208 l -3.32362,0 0,6.012587 0,6.012587 2.77629,0 c 1.62709,0 3.44193,-0.163376 4.38437,-0.394689 z"
       style="opacity:1;fill:#ffffff;fill-opacity:1;stroke:none;stroke-width:2.88599992;stroke-miterlimit:4;stroke-dasharray:none;stroke-opacity:1" />
    <path
       inkscape:connector-curvature="0"
       id="path4144"
       d="m 253.23762,-71.236642 0,-20.340454 6.27302,2.14e-4 c 3.45016,1.18e-4 7.54785,0.114941 9.10599,0.255162 9.53584,0.858157 13.81088,4.447824 13.86465,11.641871 0.0342,4.571042 -1.86497,7.585541 -6.41715,10.185939 l -1.49053,0.851452 3.15962,4.490432 c 1.73779,2.469738 4.49517,6.369399 6.1275,8.665911 1.63233,2.296514 3.00836,4.26873 3.05782,4.382702 0.0494,0.113973 -2.07526,0.203131 -4.72162,0.198129 l -4.81156,-0.0091 -1.07923,-1.68632 c -0.59358,-0.927476 -1.95948,-3.00339 -3.03534,-4.613136 -1.07585,-1.609749 -1.9561,-2.983118 -1.9561,-3.051936 0,-0.06882 -0.48564,-0.803291 -1.07922,-1.632168 -0.59358,-0.828878 -1.07923,-1.577253 -1.07923,-1.663057 0,-0.0858 -0.4932,-0.844719 -1.096,-1.686484 l -1.09601,-1.530481 -2.47894,0.07335 -2.47894,0.07335 -0.0713,7.867534 -0.0713,7.867534 -4.31302,0 -4.31301,0 0,-20.340454 z m 15.68901,-2.545906 c 1.81788,-0.449011 3.27393,-1.229807 3.85109,-2.065121 0.7519,-1.088193 1.04241,-3.014763 0.69437,-4.604619 -0.6342,-2.896917 -2.98553,-3.960874 -8.75347,-3.960874 l -2.84717,0 0,5.500878 0,5.500877 2.77628,0 c 1.55535,0 3.43711,-0.16322 4.2789,-0.371141 z"
       style="opacity:1;fill:#ffffff;fill-opacity:1;stroke:none;stroke-width:2.88599992;stroke-miterlimit:4;stroke-dasharray:none;stroke-opacity:1" />
    <path
       inkscape:connector-curvature="0"
       id="path4146"
       d="m 157.06459,-50.677192 c -7.66328,-0.931551 -12.53152,-4.828583 -14.97604,-11.988315 -1.02479,-3.001496 -1.36199,-8.481432 -0.79506,-12.920666 0.53974,-4.226286 2.9959,-9.156631 5.81531,-11.673325 2.64104,-2.357466 6.52596,-4.098151 10.27727,-4.60485 2.55055,-0.344509 7.54382,-0.135071 9.75937,0.409347 1.3625,0.334803 5.90015,1.85165 6.18176,2.066447 0.11426,0.08715 -2.67587,6.766375 -2.82653,6.766375 -0.0634,0 -0.56577,-0.216708 -1.11634,-0.481573 -0.55056,-0.264866 -2.21515,-0.851254 -3.69909,-1.303086 -2.404,-0.731974 -2.96572,-0.810837 -5.15379,-0.72357 -2.09256,0.08346 -2.71389,0.218474 -4.20162,0.913004 -2.82378,1.318255 -4.61738,3.72682 -5.79289,7.779069 -0.65921,2.272472 -0.66366,8.380832 -0.008,10.70257 1.06225,3.760288 2.75954,6.054896 5.44303,7.358581 2.58301,1.25487 8.87867,1.069135 13.50564,-0.398446 l 2.27807,-0.722557 0,3.502394 0,3.502396 -0.74196,0.283584 c -1.36652,0.522289 -5.32048,1.303715 -7.90027,1.561341 -2.90603,0.290203 -3.4466,0.287637 -6.04907,-0.02872 z"
       style="opacity:1;fill:#ffffff;fill-opacity:1;stroke:none;stroke-width:2.88599992;stroke-miterlimit:4;stroke-dasharray:none;stroke-opacity:1" />
  </g>
  <path
     style="opacity:1;fill:#39554d;fill-opacity:1;stroke:none;stroke-width:2.88599992;stroke-miterlimit:4;stroke-dasharray:none;stroke-opacity:1"
     d=""
     id="path4162"
     inkscape:connector-curvature="0" />
  <path
     style="opacity:1;fill:#39554d;fill-opacity:1;stroke:none;stroke-width:2.88599992;stroke-miterlimit:4;stroke-dasharray:none;stroke-opacity:1"
     d=""
     id="path4166"
     inkscape:connector-curvature="0" />
  <g
     id="g4235"
     transform="matrix(1.0358856,0,0,1.0088325,19.942194,100.22691)"
     inkscape:export-xdpi="90"
     inkscape:export-ydpi="90">
    <path
       inkscape:connector-curvature="0"
       id="path4148"
       d="m 97.160156,-66.455078 c -0.564266,-0.0096 -1.084648,9.13e-4 -1.425781,0.0332 l -1.240234,0.117187 0.33789,1.22461 c 0.267596,0.969151 0.233825,1.299805 -0.160156,1.58789 -0.739524,0.540754 -0.354837,2.54714 0.558594,2.916016 1.046438,0.422588 1.234375,0.395499 1.234375,-0.175781 0,-0.280906 0.135352,-0.509766 0.300781,-0.509766 0.165429,0 0.380576,-0.307098 0.478516,-0.68164 0.102103,-0.390443 0.464794,-0.681641 0.849609,-0.681641 0.369144,0 0.862572,-0.228859 1.095703,-0.509766 0.233132,-0.280906 0.677464,-0.511718 0.988277,-0.511718 0.428,0 0.56269,-0.308389 0.55469,-1.275391 l -0.0117,-1.277344 -1.873044,-0.169922 c -0.514995,-0.04682 -1.123233,-0.07636 -1.6875,-0.08594 z m -11.335937,2.849609 c -0.06242,-0.0049 -0.165323,0.07353 -0.324219,0.232422 -0.224725,0.224725 -0.857178,0.408203 -1.40625,0.408203 -2.190814,0 -7.043576,3.93953 -10.615234,8.617188 -0.660944,0.865613 -1.811113,2.835296 -2.556641,4.376953 -1.335652,2.761958 -1.688099,4.465536 -1.009766,4.884765 0.19033,0.117628 0.257974,0.357178 0.150391,0.53125 -0.107584,0.174076 0.04218,1.247711 0.333984,2.386719 0.2918,1.139007 0.53125,2.352543 0.53125,2.695313 0,0.716314 1.943553,2.486849 2.41211,2.197265 0.458411,-0.283313 3.23053,1.809458 3.667968,2.769532 0.206441,0.453078 0.549456,0.824218 0.763672,0.824218 0.273648,0 0.28413,-0.127741 0.03516,-0.427734 -0.1949,-0.234841 -0.404677,-0.962491 -0.466797,-1.617187 -0.09603,-1.012071 -0.253997,-1.207159 -1.050782,-1.298829 -0.950974,-0.109407 -1.003866,-0.419527 -0.40625,-2.359375 0.241062,-0.782476 -0.413601,-0.436846 -0.80664,0.425782 -0.570829,1.252833 -1.628308,1.103545 -2.089844,-0.294922 -0.774223,-2.345919 0.550747,-5.611226 2.111328,-5.203125 0.328663,0.08595 0.597656,0.0174 0.597656,-0.152344 0,-0.474258 2.303938,-0.36582 2.490235,0.117187 0.09029,0.234091 0.334677,-0.03389 0.542969,-0.595703 0.208293,-0.561813 0.835325,-1.328583 1.394531,-1.703125 0.7164,-0.479827 1.016897,-0.957424 1.017578,-1.617187 6.22e-4,-0.594879 0.183131,-0.9375 0.5,-0.9375 0.274317,0 0.662832,-0.305146 0.863281,-0.679688 0.200449,-0.374542 0.578146,-0.68164 0.839844,-0.68164 0.261698,0 0.564246,-0.278082 0.671875,-0.617188 0.107629,-0.339108 0.790553,-0.878454 1.517578,-1.199219 0.727025,-0.320762 1.401257,-0.88574 1.498047,-1.255859 0.220111,-0.841714 0.0095,-0.841448 -1.376953,0.0039 -1.450687,0.884502 -1.428294,0.28317 0.03125,-0.830078 0.725284,-0.553201 1.577715,-0.86914 2.345703,-0.86914 0.663183,0 1.643286,-0.22806 2.179688,-0.507813 0.976888,-0.509523 0.875075,-0.654856 -0.369141,-0.519531 -0.542509,0.059 -0.591547,-0.0182 -0.259766,-0.417969 0.223694,-0.269537 0.293126,-0.603358 0.154297,-0.742187 -0.255681,-0.255681 -0.302376,-0.434374 -0.378906,-1.427735 -0.03436,-0.446041 -0.139833,-0.473244 -0.542969,-0.138672 -0.663664,0.550793 -1.369294,0.281303 -1.371094,-0.523437 -0.0021,-0.963499 -1.161881,-1.024591 -1.8125,-0.0957 -0.306185,0.437141 -0.591432,1.024707 -0.632812,1.30664 -0.04138,0.281933 -0.351935,0.742287 -0.689453,1.023438 -0.337519,0.28115 -0.801236,0.932271 -1.03125,1.447266 -0.230015,0.514994 -0.557266,0.9375 -0.728516,0.9375 -0.423624,-10e-7 -0.744751,-0.915452 -0.523437,-1.492188 0.09927,-0.25869 -0.223412,-0.788101 -0.71875,-1.177734 -0.631257,-0.49655 -0.837839,-0.901913 -0.691407,-1.363282 0.20085,-0.632823 2.101078,-2.077476 3.335938,-2.535156 0.327725,-0.121466 0.595703,-0.359943 0.595703,-0.53125 0,-0.171306 0.307099,-0.392284 0.681641,-0.490234 0.374542,-0.09794 0.68164,-0.376883 0.68164,-0.619141 0,-0.171294 -0.02351,-0.258801 -0.08594,-0.263672 z m 31.097661,4.896485 -0.0137,1.070312 c -0.0149,1.140496 -0.54526,1.548672 -1.64258,1.261719 -0.37027,-0.09683 -0.84192,0.02725 -1.04687,0.277344 -0.20495,0.25009 -0.73972,0.909075 -1.18945,1.46289 l -0.81836,1.00586 0.68554,0.927734 c 0.97524,1.319089 0.6066,2.083919 -0.77148,1.603516 -0.57985,-0.202143 -1.11897,-0.30291 -1.19727,-0.22461 -0.0783,0.0783 -0.0484,0.720434 0.0664,1.427735 0.15291,0.94225 0.42902,1.369903 1.0332,1.599609 0.98529,0.374609 2.28383,-0.190119 2.01954,-0.878906 -0.097,-0.252852 0.0447,-0.643294 0.31445,-0.867188 0.26978,-0.223893 0.49023,-0.634096 0.49023,-0.912109 0,-0.304571 0.19887,-0.430005 0.5,-0.314453 0.27491,0.105492 0.59628,0.03561 0.71485,-0.15625 0.11858,-0.191861 0.42944,-0.266541 0.6914,-0.166016 0.26197,0.100524 0.47656,0.03491 0.47657,-0.146484 -2e-5,-0.652693 0.87574,-0.305285 2.1289,0.845703 0.70227,0.645007 1.27539,1.363384 1.27539,1.597656 0,0.331295 0.0924,0.335371 0.41016,0.01758 0.65,-0.65 0.95453,-0.489592 1.48633,0.783203 0.44923,1.075163 1.50976,1.680405 1.50976,0.861329 0,-1.409774 -3.22494,-6.775447 -5.73437,-9.542969 l -1.38867,-1.533203 z m 0.39843,11.179687 c -0.17792,-0.0014 -0.4012,0.01852 -0.68554,0.05078 -3.40741,0.386586 -4.25939,0.626683 -4.42188,1.248047 -0.0906,0.34655 -0.30137,0.63086 -0.4668,0.63086 -0.16543,0 -0.30078,0.383384 -0.30078,0.851562 0,0.468177 -0.11345,0.852216 -0.2539,0.853516 -0.14046,0.0013 -0.63701,0.576357 -1.10352,1.277343 -0.4665,0.700987 -0.941,1.34973 -1.05273,1.44336 -0.39863,0.334059 -0.58528,1.703125 -0.23243,1.703125 0.23284,0 0.28257,0.704811 0.14454,2.025391 -0.1902,1.819721 -0.12692,2.126295 0.62304,3.017578 0.45907,0.545568 0.73681,1.089359 0.61719,1.208984 -0.11963,0.119621 0.0125,0.216797 0.29297,0.216797 0.28047,0 0.70577,0.366862 0.94531,0.814453 0.37777,0.705859 0.62307,0.791618 1.8457,0.652344 0.77527,-0.08832 1.85355,-0.300652 2.39649,-0.472656 1.3418,-0.425085 1.56641,-0.395465 1.56641,0.199218 -3e-5,0.280906 0.29666,0.509766 0.66015,0.509766 0.96186,0 1.09477,0.444913 0.57422,1.921875 -0.31956,0.906688 -0.36179,1.576293 -0.14063,2.164062 0.45164,1.200183 0.0604,3.209028 -0.92968,4.777344 -0.46442,0.735684 -0.84571,1.671114 -0.84571,2.078125 0,0.407011 -0.36472,1.520184 -0.81054,2.47461 -0.44582,0.954424 -0.91903,2.093817 -1.05274,2.53125 -0.21812,0.713543 -0.17353,0.757612 0.43555,0.43164 1.31139,-0.701834 5.40314,-5.499276 6.85742,-8.041016 3.07133,-5.367998 4.65903,-12.621508 3.74024,-17.080078 -0.22488,-1.091266 -0.40344,-2.520333 -0.39844,-3.175781 0.005,-0.655452 -0.0597,-0.933633 -0.14453,-0.619141 -0.13651,0.506055 -0.2943,0.476201 -1.37305,-0.255859 -1.41129,-0.957729 -1.80469,-1.026703 -1.80469,-0.316406 0,0.721096 -0.33642,0.646764 -2.10156,-0.472656 -0.95244,-0.604019 -1.6363,-1.324686 -1.77148,-1.863282 -0.1477,-0.588456 -0.27484,-0.780856 -0.8086,-0.785156 z m -35.863279,12.871094 c -0.152398,0.03397 -0.331085,0.236511 -0.652343,0.634765 -0.419941,0.520591 -0.618565,1.143367 -0.511719,1.603516 0.09609,0.413821 -0.03051,1.348389 -0.28125,2.076172 -0.56346,1.635454 -0.422421,3.8516 0.277343,4.363281 0.288005,0.210593 0.876996,1.053042 1.310547,1.873047 0.433551,0.820005 1.083839,1.543865 1.44336,1.609375 1.239268,0.225823 2.119481,1.45014 2.695312,3.744141 0.312892,1.246502 0.69038,2.502009 0.837891,2.789062 0.147511,0.287053 0.384066,1.05187 0.52539,1.701172 0.141329,0.649301 0.659273,1.66662 1.150391,2.259766 0.491118,0.593146 1.167439,1.473368 1.503906,1.957031 0.61043,0.877477 1.261719,1.167417 1.261719,0.560547 0,-0.176219 -0.133792,-0.403115 -0.296875,-0.503906 -0.395377,-0.244356 -0.753561,-2.110062 -0.521484,-2.714844 0.101498,-0.264501 0.514747,-0.567872 0.919922,-0.673828 0.58385,-0.15268 0.64907,-0.278665 0.316406,-0.611328 -0.634129,-0.634129 -0.503368,-1.067263 0.261719,-0.867188 0.374542,0.09794 0.68164,0.06296 0.68164,-0.07813 0,-0.141085 0.307099,-0.609168 0.681641,-1.041015 0.374542,-0.431852 0.679687,-1.126377 0.679687,-1.542969 0,-0.878793 0.450713,-1.30113 1.873047,-1.757813 1.147013,-0.368284 1.859688,-1.495908 1.867188,-2.953125 0.0031,-0.594244 0.40575,-1.432665 1.027343,-2.140625 1.234961,-1.406541 1.289455,-2.075259 0.203126,-2.488281 -0.449987,-0.171084 -0.908518,-0.459047 -1.019532,-0.638672 -0.111015,-0.17962 -0.740224,-0.300401 -1.396484,-0.269531 -0.705166,0.03317 -1.191406,-0.104386 -1.191406,-0.335938 0,-0.494461 -1.29597,-0.855367 -1.556641,-0.433593 -0.106762,0.172744 -0.33824,0.224864 -0.515625,0.115234 -0.177389,-0.109631 -0.225611,-0.35834 -0.105469,-0.552734 0.136789,-0.221325 -0.02966,-0.275121 -0.447265,-0.142579 -0.559688,0.177639 -0.667969,0.04933 -0.667969,-0.796874 0,-1.33522 -0.656871,-2.066407 -1.857422,-2.066407 -0.538882,0 -1.254017,-0.267979 -1.589844,-0.595703 -1.276045,-1.245258 -1.820461,-1.54195 -3.054687,-1.666016 -0.699689,-0.07033 -1.578583,-0.163934 -1.953125,-0.208984 -0.394525,-0.04745 -0.645023,0.09717 -0.595703,0.34375 0.121692,0.608461 -0.272944,0.525605 -0.808594,-0.169922 -0.214699,-0.27878 -0.341742,-0.414832 -0.494141,-0.380859 z"
       style="opacity:1;fill:#39554d;fill-opacity:1;stroke:none;stroke-width:2.88599992;stroke-miterlimit:4;stroke-dasharray:none;stroke-opacity:1" />
    <path
       inkscape:connector-curvature="0"
       id="path4168"
       d="m 79.249503,-40.06275 c -0.05535,-0.01577 -0.122809,-0.02948 -0.149906,-0.03047 -0.07421,-0.0027 -0.163193,-0.04955 -0.163193,-0.0859 0,-0.01771 -0.03774,-0.06741 -0.08387,-0.110445 -0.04613,-0.04304 -0.106509,-0.09969 -0.134185,-0.125887 -0.02768,-0.0262 -0.05032,-0.06043 -0.05032,-0.07606 0,-0.06179 -0.09202,-0.11351 -0.288218,-0.161989 -0.33808,-0.08354 -0.543233,-0.03894 -0.594019,0.129142 -0.01563,0.05173 -0.04372,0.07921 -0.106682,0.104409 -0.10646,0.0426 -0.147939,0.04281 -0.247328,0.0013 -0.07702,-0.03218 -0.07833,-0.03486 -0.05917,-0.120168 0.03393,-0.150999 0.06192,-0.203115 0.11491,-0.213916 0.02811,-0.0057 0.212133,-0.01616 0.408938,-0.02319 0.196805,-0.007 0.401155,-0.02149 0.454111,-0.03216 0.07027,-0.01415 0.13674,-0.0092 0.246007,0.01826 0.134316,0.03377 0.152083,0.04482 0.172664,0.107334 0.03457,0.10501 0.09766,0.161649 0.197904,0.177679 0.05489,0.0088 0.109294,0.03607 0.138742,0.06961 0.09542,0.108662 0.133525,0.143589 0.208601,0.191225 0.100486,0.06376 0.132082,0.115179 0.101025,0.164414 -0.03115,0.04939 -0.04631,0.05092 -0.166019,0.01682 z m 2.65e-4,-0.09367 c -0.07038,-0.0048 -0.139544,-0.02361 -0.16214,-0.04406 -0.03647,-0.03301 -0.0394,-0.03207 -0.0394,0.01253 0,0.0453 0.0097,0.04795 0.16214,0.04406 0.149027,-0.0038 0.152214,-0.0048 0.0394,-0.01254 z m -1.64507,-0.29475 c 0.007,-0.01138 5.81e-4,-0.04747 -0.01434,-0.08021 -0.02523,-0.05537 -0.02915,-0.05675 -0.0562,-0.01977 -0.04361,0.05964 -0.03636,0.120668 0.01434,0.120668 0.02388,0 0.04916,-0.0093 0.0562,-0.02069 z m 0.884422,-0.292411 c 0,-0.0123 -0.02575,-0.02236 -0.05723,-0.02236 -0.03246,0 -0.05125,0.0097 -0.04341,0.02236 0.0076,0.0123 0.03336,0.02236 0.05723,0.02236 0.02388,0 0.04341,-0.01006 0.04341,-0.02236 z"
       style="opacity:1;fill:#39554d;fill-opacity:1;stroke:none;stroke-width:2.88599992;stroke-miterlimit:4;stroke-dasharray:none;stroke-opacity:1" />
    <path
       inkscape:connector-curvature="0"
       id="path4170"
       d="m 82.037167,-38.343561 c -0.008,-0.008 -0.0145,-0.03628 -0.0145,-0.06289 0,-0.02662 -0.02451,-0.09681 -0.05447,-0.155983 -0.02996,-0.05917 -0.06118,-0.170269 -0.06939,-0.246877 l -0.01492,-0.139288 0.08252,-0.01548 c 0.104427,-0.01959 0.643747,-0.02092 0.704188,-0.0017 0.02495,0.0079 0.04536,0.03328 0.04536,0.05637 0,0.07253 0.09525,0.148747 0.247582,0.198121 0.08082,0.02619 0.166363,0.04849 0.190096,0.04955 0.0281,0.0013 0.01975,0.0091 -0.02394,0.02241 -0.0369,0.01127 -0.192891,0.01931 -0.346645,0.01787 -0.153754,-0.0014 -0.304712,0.0077 -0.335463,0.02031 -0.03075,0.01261 -0.10996,0.07336 -0.17602,0.135008 -0.115059,0.107371 -0.203424,0.1536 -0.234398,0.122626 z"
       style="opacity:1;fill:#39554d;fill-opacity:1;stroke:none;stroke-width:2.88599992;stroke-miterlimit:4;stroke-dasharray:none;stroke-opacity:1" />
    <path
       inkscape:connector-curvature="0"
       id="path4172"
       d="m 79.905886,-38.31719 c -0.03781,-0.02805 -0.03832,-0.03379 -0.0059,-0.06677 0.02965,-0.03013 0.04534,-0.03161 0.09505,-0.009 0.07351,0.03349 0.07473,0.05057 0.0059,0.08195 -0.04109,0.01872 -0.06338,0.01726 -0.09505,-0.0062 z"
       style="opacity:1;fill:#39554d;fill-opacity:1;stroke:none;stroke-width:2.88599992;stroke-miterlimit:4;stroke-dasharray:none;stroke-opacity:1" />
  </g>
  <path
     style="opacity:1;fill:#55cbef;fill-opacity:1;stroke:none;stroke-width:2.88599992;stroke-miterlimit:4;stroke-dasharray:none;stroke-opacity:1"
     d="m 26.125176,94.85987 0,-2.53022 2.783244,0 2.783244,0 0,2.53022 0,2.53022 -2.783244,0 -2.783244,0 0,-2.53022 z"
     id="path4174"
     inkscape:connector-curvature="0" />
  <path
     style="opacity:1;fill:#55cbef;fill-opacity:1;stroke:none;stroke-width:2.88599992;stroke-miterlimit:4;stroke-dasharray:none;stroke-opacity:1"
     d="m 37.764196,88.02827 0,-9.36182 2.530222,0 2.530221,0 0,9.36182 0,9.36182 -2.530221,0 -2.530222,0 0,-9.36182 z"
     id="path4176"
     inkscape:connector-curvature="0" />
  <path
     style="opacity:1;fill:#55cbef;fill-opacity:1;stroke:none;stroke-width:2.88599992;stroke-miterlimit:4;stroke-dasharray:none;stroke-opacity:1"
     d="m 48.391127,90.81151 0,-6.57857 2.783243,0 2.783244,0 0,6.57857 0,6.57858 -2.783244,0 -2.783243,0 0,-6.57858 z"
     id="path4178"
     inkscape:connector-curvature="0" />
  <path
     style="opacity:1;fill:#55cbef;fill-opacity:1;stroke:none;stroke-width:2.88599992;stroke-miterlimit:4;stroke-dasharray:none;stroke-opacity:1"
     d="m 60.53619,86.00409 0,-11.386 2.530222,0 2.530222,0 0,11.386 0,11.386 -2.530222,0 -2.530222,0 0,-11.386 z"
     id="path4180"
     inkscape:connector-curvature="0" />
  <path
     style="opacity:1;fill:#55cbef;fill-opacity:1;stroke:none;stroke-width:2.88599992;stroke-miterlimit:4;stroke-dasharray:none;stroke-opacity:1"
     d="m 72.17521,78.41343 0,-18.97666 2.783244,0 2.783243,0 0,18.97666 0,18.97666 -2.783243,0 -2.783244,0 0,-18.97666 z"
     id="path4182"
     inkscape:connector-curvature="0" />
  <path
     style="opacity:1;fill:#55cbef;fill-opacity:1;stroke:none;stroke-width:2.88599992;stroke-miterlimit:4;stroke-dasharray:none;stroke-opacity:1"
     d="m 82.802141,67.02743 0,-30.36266 2.783243,0 2.783244,0 0,30.36266 0,30.36266 -2.783244,0 -2.783243,0 0,-30.36266 z"
     id="path4184"
     inkscape:connector-curvature="0" />
  <path
     style="opacity:1;fill:#55cbef;fill-opacity:1;stroke:none;stroke-width:2.88599992;stroke-miterlimit:4;stroke-dasharray:none;stroke-opacity:1"
     d="m 94.44116,85.90735 0,-11.48274 1.801365,3.0065 c 0.990751,1.65357 2.86088,4.08816 4.155845,5.41021 2.19264,2.23848 2.60177,3.43688 0.5347,1.56621 -0.89224,-0.80747 -0.92542,-0.58974 -0.92542,6.07253 l 0,6.91003 -2.783246,0 -2.783244,0 0,-11.48274 z"
     id="path4186"
     inkscape:connector-curvature="0" />
  <path
     style="opacity:1;fill:#55cbef;fill-opacity:1;stroke:none;stroke-width:2.88599992;stroke-miterlimit:4;stroke-dasharray:none;stroke-opacity:1"
     d="m 107.00167,92.82877 c -0.13897,-3.90272 -0.0528,-4.51349 0.59664,-4.23002 0.41749,0.18222 2.12111,0.84166 3.78582,1.46542 1.97554,0.74023 2.68844,1.19927 2.05266,1.32171 -0.84634,0.16299 -0.95643,0.56903 -0.83938,3.0959 l 0.13472,2.90831 -2.78402,0 -2.78401,0 -0.16243,-4.56132 z"
     id="path4188"
     inkscape:connector-curvature="0" />
  <path
     style="opacity:1;fill:#55cbef;fill-opacity:1;stroke:none;stroke-width:2.88599992;stroke-miterlimit:4;stroke-dasharray:none;stroke-opacity:1"
     d="m 117.7192,94.90204 c 0,-1.51695 -0.24689,-2.58768 -0.63256,-2.74329 -0.3479,-0.14039 1.64465,-0.23678 4.42789,-0.21421 2.78325,0.0226 4.32036,0.13288 3.4158,0.24513 -1.60583,0.19928 -1.64464,0.26305 -1.64464,2.70226 l 0,2.49816 -2.78325,0 -2.78324,0 0,-2.48805 z"
     id="path4190"
     inkscape:connector-curvature="0" />
  <path
     style="opacity:1;fill:#55cbef;fill-opacity:1;stroke:none;stroke-width:2.88599992;stroke-miterlimit:4;stroke-dasharray:none;stroke-opacity:1"
     d="m 129.86427,94.63671 c 0,-1.52278 -0.25907,-2.91349 -0.57964,-3.11162 -0.32789,-0.20264 0.826,-0.87133 2.65673,-1.5396 1.78,-0.64974 3.23637,-1.18567 3.23637,-1.19094 0,-0.005 -0.0737,1.92657 -0.16369,4.29298 l -0.16369,4.30256 -2.49304,0 -2.49304,0 0,-2.75338 z"
     id="path4192"
     inkscape:connector-curvature="0" />
  <path
     style="opacity:1;fill:#55cbef;fill-opacity:1;stroke:none;stroke-width:2.88599992;stroke-miterlimit:4;stroke-dasharray:none;stroke-opacity:1"
     d="m 140.39444,91.36147 -0.15626,-6.02862 2.90975,-3.09364 2.90975,-3.09365 0,9.12227 0,9.12226 -2.75348,0 -2.75349,0 -0.15627,-6.02862 z"
     id="path4194"
     inkscape:connector-curvature="0" />
  <path
     style="opacity:1;fill:#55cbef;fill-opacity:1;stroke:none;stroke-width:2.88599992;stroke-miterlimit:4;stroke-dasharray:none;stroke-opacity:1"
     d="m 153.14231,61.71396 0,-35.67612 2.53022,0 2.53022,0 0,35.67612 0,35.67613 -2.53022,0 -2.53022,0 0,-35.67613 z"
     id="path4196"
     inkscape:connector-curvature="0" />
  <path
     style="opacity:1;fill:#55cbef;fill-opacity:1;stroke:none;stroke-width:2.88599992;stroke-miterlimit:4;stroke-dasharray:none;stroke-opacity:1"
     d="m 144.7677,44.72559 c -0.79218,-1.14312 -2.47698,-3.00567 -3.744,-4.13899 -1.26701,-1.13333 -1.90515,-1.91722 -1.41808,-1.74198 0.82658,0.29738 0.88558,-0.43881 0.88558,-11.05151 l 0,-11.37011 2.76851,0 2.76852,0 0.14124,15.05482 c 0.0777,8.28015 0.11814,15.11587 0.0899,15.19049 -0.0282,0.0746 -0.69949,-0.7996 -1.49167,-1.94272 z"
     id="path4198"
     inkscape:connector-curvature="0" />
  <path
     style="opacity:1;fill:#55cbef;fill-opacity:1;stroke:none;stroke-width:2.88599992;stroke-miterlimit:4;stroke-dasharray:none;stroke-opacity:1"
     d="m 133.40658,35.81793 c -0.97414,-0.44398 -3.3652,-1.23395 -5.31347,-1.7555 -3.51824,-0.94182 -3.52426,-0.9464 -0.88558,-0.67366 l 2.65674,0.27459 0,-15.7048 0,-15.7048 2.53022,0 2.53022,0 0,16.59825 c 0,12.23503 0.15963,16.75788 0.60725,17.20551 0.82437,0.82436 0.007,0.73221 -2.12538,-0.23959 z"
     id="path4200"
     inkscape:connector-curvature="0" />
  <path
     style="opacity:1;fill:#55cbef;fill-opacity:1;stroke:none;stroke-width:2.88599992;stroke-miterlimit:4;stroke-dasharray:none;stroke-opacity:1"
     d="m 107.09227,26.54388 0,-10.12088 2.81335,0 2.81336,0 -0.0963,8.60201 c -0.053,4.73111 0.0494,8.61599 0.22746,8.63308 0.17809,0.0171 1.34649,-0.1223 2.59645,-0.30974 l 2.27265,-0.34081 0,-11.07551 0,-11.07552 2.78324,0 2.78325,0 0,10.83778 c 0,8.19674 0.15414,10.89999 0.63255,11.09303 0.34791,0.14038 -0.57495,0.27322 -2.05079,0.29519 -3.205,0.0477 -9.0842,1.32377 -12.1461,2.63626 -1.21382,0.5203 -2.30192,0.946 -2.41801,0.946 -0.11609,0 -0.21107,-4.5544 -0.21107,-10.12089 z"
     id="path4202"
     inkscape:connector-curvature="0" />
  <path
     style="opacity:1;fill:#55cbef;fill-opacity:1;stroke:none;stroke-width:2.88599992;stroke-miterlimit:4;stroke-dasharray:none;stroke-opacity:1"
     d="m 107.09227,26.59803 0,-10.17503 2.78324,0 2.78325,0 0,8.66896 0,8.66897 1.89766,-0.31367 c 1.04372,-0.17251 2.18232,-0.31617 2.53022,-0.31923 0.48671,-0.004 0.63256,-2.5725 0.63256,-11.13854 l 0,-11.13298 2.78324,0 2.78325,0 0,10.52572 c 0,6.6643 0.19457,10.72029 0.53037,11.0561 0.3698,0.3698 -0.66435,0.62328 -3.4158,0.83724 -3.29267,0.25605 -8.22647,1.5074 -12.42241,3.15066 -0.82555,0.32331 -0.88558,-0.34294 -0.88558,-9.8282 z"
     id="path4204"
     inkscape:connector-curvature="0" />
  <path
     style="opacity:1;fill:#55cbef;fill-opacity:1;stroke:none;stroke-width:2.88599992;stroke-miterlimit:4;stroke-dasharray:none;stroke-opacity:1"
     d="m 94.447255,32.3037 -0.0061,-15.8807 2.783244,0 2.783241,0 0,11.52821 c 0,7.803567 0.17323,11.52822 0.53617,11.52822 0.29489,0 -0.37209,1.005778 -1.482179,2.235062 -1.11009,1.229283 -2.601082,3.187904 -3.313315,4.35249 l -1.29497,2.117428 -0.0061,-15.88071 z"
     id="path4208"
     inkscape:connector-curvature="0" />
  <path
     style="opacity:1;fill:#55cbef;fill-opacity:1;stroke:none;stroke-width:2.88599992;stroke-miterlimit:4;stroke-dasharray:none;stroke-opacity:1"
     d="m 91.712057,65.21489 c -0.493633,-1.28639 -0.353341,-5.18381 0.198881,-5.5251 0.317717,-0.19636 0.506045,0.92249 0.506045,3.0064 0,3.3814 -0.157681,3.94479 -0.704926,2.5187 z"
     id="path4210"
     inkscape:connector-curvature="0" />
  <path
     style="opacity:1;fill:#55cbef;fill-opacity:1;stroke:none;stroke-width:2.88599992;stroke-miterlimit:4;stroke-dasharray:none;stroke-opacity:1"
     d="m 151.23553,62.47303 c 0,-0.97413 0.10414,-1.37264 0.23143,-0.88558 0.12728,0.48707 0.12728,1.28409 0,1.77116 -0.12729,0.48707 -0.23143,0.0886 -0.23143,-0.88558 z"
     id="path4212"
     inkscape:connector-curvature="0" />
  <g
     id="g4253"
     transform="translate(24.463136,0.14596176)">
    <path
       inkscape:connector-curvature="0"
       id="path4243"
       d="m 103.45228,38.338086 c -0.33041,-0.02889 -0.50678,-0.112028 -0.50678,-0.238873 0,-0.140488 0.169,-0.194554 0.60813,-0.194554 0.35956,0 0.60814,-0.062 0.60814,-0.151688 0,-0.105301 0.0615,-0.100619 0.20122,0.01531 0.38678,0.321001 -0.12123,0.638845 -0.91071,0.569803 z"
       style="opacity:1;fill:#3a5650;fill-opacity:1;stroke:none;stroke-width:0.18919741;stroke-miterlimit:4;stroke-dasharray:none;stroke-opacity:1" />
    <path
       inkscape:connector-curvature="0"
       id="path4245"
       d="m 114.18467,41.623478 c -0.86909,-0.923969 -1.33777,-1.115682 -1.47207,-0.602141 -0.0647,0.247571 -0.15393,0.195036 -0.79819,-0.470123 -0.76891,-0.793858 -0.80564,-0.889246 -0.58548,-1.52078 0.10771,-0.308967 0.0924,-0.492104 -0.0667,-0.797227 -0.11361,-0.217865 -0.20694,-0.472135 -0.2074,-0.565044 -4.5e-4,-0.09291 -0.0616,-0.168927 -0.13597,-0.168927 -0.0743,0 -0.13514,-0.08615 -0.13514,-0.191449 0,-0.105298 -0.076,-0.222124 -0.16893,-0.259613 -0.13171,-0.05315 -0.13058,-0.07051 0.005,-0.07883 0.0957,-0.0059 0.53228,0.217382 0.97009,0.49611 0.77218,0.491614 1.49108,1.326122 1.49108,1.730883 0,0.109199 0.076,0.333463 0.16892,0.498365 0.19621,0.348241 1.04926,1.183063 1.20889,1.183063 0.0598,0 0.10874,0.07202 0.10874,0.160044 0,0.08802 0.12859,0.425672 0.28575,0.750329 0.15716,0.324656 0.25742,0.618616 0.22279,0.653243 -0.0346,0.03463 -0.4358,-0.333428 -0.8915,-0.8179 z"
       style="opacity:1;fill:#3a5650;fill-opacity:1;stroke:none;stroke-width:0.18919741;stroke-miterlimit:4;stroke-dasharray:none;stroke-opacity:1" />
    <path
       inkscape:connector-curvature="0"
       id="path4247"
       d="m 111.96616,44.835197 c -0.2044,-0.03097 -0.37164,-0.142321 -0.37164,-0.247459 0,-0.105139 -0.15081,-0.229012 -0.33513,-0.275274 -0.28255,-0.07091 -0.31318,-0.125131 -0.19522,-0.345531 0.0769,-0.143781 0.0996,-0.388365 0.0504,-0.543521 -0.11309,-0.356303 0.13586,-0.221608 0.59173,0.320163 0.17474,0.207664 0.40352,0.377571 0.5084,0.377571 0.1218,0 0.1907,0.146492 0.1907,0.405423 0,0.222983 -0.0152,0.396311 -0.0338,0.385174 -0.0186,-0.01114 -0.20103,-0.04558 -0.40543,-0.07655 z"
       style="opacity:1;fill:#3a5650;fill-opacity:1;stroke:none;stroke-width:0.18919741;stroke-miterlimit:4;stroke-dasharray:none;stroke-opacity:1" />
    <path
       inkscape:connector-curvature="0"
       id="path4249"
       d="m 109.25816,43.985285 c 0.039,-0.149051 -0.002,-0.359234 -0.0919,-0.467074 -0.20386,-0.24564 -0.0706,-0.478193 0.27394,-0.478193 0.20272,0 0.26231,0.0943 0.26231,0.415076 0,0.228291 -0.0869,0.501952 -0.19306,0.608134 -0.26423,0.264227 -0.33507,0.242258 -0.25133,-0.07794 z"
       style="opacity:1;fill:#3a5650;fill-opacity:1;stroke:none;stroke-width:0.18919741;stroke-miterlimit:4;stroke-dasharray:none;stroke-opacity:1" />
    <path
       inkscape:connector-curvature="0"
       id="path4251"
       d="m 109.87148,42.334515 c -0.43436,-0.209484 -0.40834,-0.628359 0.0338,-0.543842 0.24781,0.04737 0.33785,0.150428 0.33785,0.386683 0,0.177154 -0.0152,0.317982 -0.0338,0.312951 -0.0186,-0.005 -0.17062,-0.07514 -0.33785,-0.155792 z"
       style="opacity:1;fill:#3a5650;fill-opacity:1;stroke:none;stroke-width:0.18919741;stroke-miterlimit:4;stroke-dasharray:none;stroke-opacity:1" />
  </g>
  <text
     xml:space="preserve"
     style="font-style:normal;font-weight:normal;font-size:43.73752594px;line-height:125%;font-family:sans-serif;letter-spacing:0px;word-spacing:0px;fill:#ffffff;fill-opacity:1;stroke:none;stroke-width:1px;stroke-linecap:butt;stroke-linejoin:miter;stroke-opacity:1;"
     x="170.96332"
     y="69.995888"
     id="text4260"
     sodipodi:linespacing="125%"
     transform="scale(0.96709844,1.0340209)"><tspan
       sodipodi:role="line"
       id="tspan4262"
       x="170.96332"
       y="69.995888"
       style="font-size:19.13516808px;fill:#ffffff;">CENTER FOR ECONOMIC</tspan><tspan
       sodipodi:role="line"
       x="170.96332"
       y="93.914848"
       id="tspan4264"
       style="font-size:19.13516808px;fill:#ffffff;">AND POLICY RESEARCH</tspan></text>
</svg>
